<?xml version="1.0" encoding="utf-8"?>
<!-- Generator: Adobe Illustrator 16.0.0, SVG Export Plug-In . SVG Version: 6.00 Build 0)  -->
<!DOCTYPE svg PUBLIC "-//W3C//DTD SVG 1.1//EN" "http://www.w3.org/Graphics/SVG/1.1/DTD/svg11.dtd">
<svg version="1.1" id="Layer_1" xmlns="http://www.w3.org/2000/svg" xmlns:xlink="http://www.w3.org/1999/xlink" x="0px" y="0px"
	 width="532px" height="432px" viewBox="0 0 532 432" enable-background="new 0 0 532 432" xml:space="preserve">
<g>
	<path fill="#FFFFFF" d="M436.015,68.151c-0.05-0.209-0.089-0.42-0.104-0.635c-0.014-0.045-0.014-0.093-0.021-0.139
		c-0.068-0.173-0.127-0.33-0.15-0.413c-0.124-0.464-0.189-0.945-0.23-1.423c-0.254-0.5-0.355-1.044-0.347-1.58
		c-0.002-0.008-0.008-0.016-0.01-0.024v0.046c-0.938-2.935-1.833-6.984-3.506-10.678c-1.753-3.865-3.957-7.611-6.518-10.994
		c-2.499-3.298-5.473-6.326-8.642-8.99c-3.262-2.73-6.889-5.085-10.574-7.235c-7.177-4.194-15.082-6.39-23.229-7.802h-16.486
		c-16.832,2.87-29.912,12.03-40.807,24.653c-1.912,2.216-3.186,2.334-5.664,1.016c-22.332-11.852-46.209-16.957-71.39-15.268
		c-16.884,1.128-33.022,5.534-48.205,13.092c-2.559,1.272-4.09,1.167-6.127-1.055c-9.603-10.473-20.88-18.381-34.988-21.632
		c-1.28-0.291-2.566-0.542-3.846-0.805h-16.487c-12.208,2.032-23.38,6.45-33.069,14.332C94.797,41.42,88.044,52.56,85.927,66.422
		v9.228c1.879,13.982,6.16,27.093,14.087,38.885c4.769,7.09,10.427,13.336,17.629,17.999c2.097,1.352,2.328,2.659,1.648,4.854
		c-4.286,13.911-5.625,28.229-4.451,42.626c2.011,24.7,12.069,45.798,30.062,62.958c18.995,18.118,42.065,28.301,67.305,33.973
		c8.838,1.984,17.88,3.095,24.238,4.169h-0.275c0.118,0.028,0.23,0.065,0.337,0.104c3.371,0.238,6.742,0.446,10.112,0.56
		c9.622,0.315,19.354,0.084,28.966-0.441c0.289-0.096,0.615-0.148,0.968-0.159c0.254-0.073,0.512-0.14,0.781-0.172
		c0.479-0.058,0.955-0.062,1.438-0.053c33.293-3.632,65.133-13.239,91.045-37.356c17.529-16.318,27.76-36.456,30.353-60.384
		c1.562-14.443,0.546-28.69-3.214-42.699c-0.738-2.763-0.066-3.917,2.368-5.295c17.479-9.879,27.211-25.656,32.938-44.294
		c1.346-4.366,2.069-8.924,2.889-12.539v0.301c0.009-0.046,0.025-0.089,0.039-0.136c0.031-0.271,0.097-0.537,0.188-0.791
		c0.025-0.109,0.057-0.217,0.093-0.322c0.021-0.189,0.054-0.379,0.108-0.562c0.023-0.376,0.121-0.742,0.256-1.089
		c0-0.078,0.007-0.156,0.007-0.233c-0.004-0.439,0.089-0.862,0.25-1.249c0-0.001,0-0.003,0-0.005c0-1.817,0-3.635,0-5.453
		C436.032,68.619,436.013,68.385,436.015,68.151z M131.237,111.527c-11.021-9.148-16.165-20.122-15.38-33.979
		c0.581-10.276,8.917-21.448,19.312-25.26c12.366-4.537,29.395-0.864,37.976,8.409C155.831,74.594,141.744,91.234,131.237,111.527z
		 M312.107,198.725c-4.599,9.933-12.889,15.895-22.892,18.988c-8.497,2.633-17.438,3.825-21.903,4.755
		c-18.466-0.62-32.021-2.706-43.589-11.489c-6.958-5.291-11.489-12.096-12.017-21.012c-0.316-5.389,1.748-10.098,5.468-13.99
		c6.892-7.202,15.77-10.599,25.234-12.565c16.588-3.462,33.168-3.356,49.227,2.362c5.658,2.018,11.205,5.223,15.816,9.075
		C314.956,181.135,316.236,189.808,312.107,198.725z M389.773,112.299c-0.588,0.462-1.287,0.772-2.352,1.392
		c-10.009-20.083-23.369-37.046-40.724-51.22c5.765-5.658,12.192-9.511,19.852-11.198c9.248-2.038,18.08-1.241,26.152,4.122
		c8.758,5.81,13.117,13.989,13.46,24.508C406.624,93.753,400.321,104.075,389.773,112.299z"/>
	<path fill="#FFFFFF" d="M282.337,172.357c-2.084-1.689-4.637-2.942-7.157-3.918c-6.603-2.559-13.579-2.532-20.451-1.832
		c-5.448,0.554-10.836,1.952-15.136,5.751c-4.088,3.613-4.148,8.046-0.033,11.588c1.636,1.404,3.575,2.763,5.6,3.337
		c3.241,0.908,6.535,1.632,9.836,2.334c0.195,0.006,0.38,0.023,0.558,0.054c0.023,0,0.046-0.003,0.071-0.003
		c0.349,0,0.667,0.048,0.958,0.129c0.084-0.007,0.163-0.02,0.251-0.02c0.276,0,0.534,0.029,0.775,0.082
		c0.175,0.019,0.341,0.051,0.5,0.092c0.052-0.002,0.101-0.009,0.152-0.009c0.076,0,0.147,0.007,0.22,0.013
		c0.128-0.006,0.256-0.012,0.384-0.013c0.148-0.001,0.291,0.023,0.435,0.041c0.131-0.008,0.261,0.002,0.393,0.01
		c0.179-0.03,0.36-0.05,0.547-0.051c0.06,0.011,0.121,0.016,0.18,0.025c0.087-0.008,0.168-0.025,0.259-0.025
		c0.245,0,0.472,0.024,0.688,0.066c1.38,0.02,2.767,0.109,4.133-0.034c6.055-0.614,11.982-1.774,16.803-5.838
		C286.598,180.521,286.672,175.872,282.337,172.357z"/>
</g>
<g id="SpeakOut">
	<g>
		<path fill="#FFFFFF" d="M51.504,339.822l-14.831-3.356c-5.629-1.301-12.125-3.033-12.125-8.448c0-5.413,4.546-9.202,12.774-9.202
			c16.563,0,15.048,11.586,23.276,11.586c4.33,0,8.12-2.6,8.12-7.039c0-10.395-16.347-18.189-30.205-18.189
			c-15.048,0-31.07,6.496-31.07,23.82c0,8.337,2.922,17.217,19.054,21.331l20.028,5.09c6.062,1.517,7.579,4.98,7.579,8.12
			c0,5.198-5.089,10.287-14.291,10.287c-17.971,0-15.481-14.077-25.117-14.077c-4.331,0-7.469,3.032-7.469,7.364
			c0,8.445,10.068,19.707,32.586,19.707c21.435,0,32.045-10.504,32.045-24.58C71.858,353.14,67.744,343.503,51.504,339.822z
			 M114.078,326.936c-7.686,0-14.073,3.249-16.672,9.962H97.19v-2.49c0-4.872-2.49-7.472-7.146-7.472
			c-4.872,0-7.146,2.6-7.146,7.472v65.077c0,5.196,3.14,7.903,7.904,7.903c4.763,0,7.902-2.707,7.902-7.903v-21.115h0.217
			c2.923,5.09,8.336,8.012,15.589,8.012c16.672,0,24.358-14.184,24.358-29.344C138.87,336.573,127.286,326.936,114.078,326.936z
			 M110.506,374.038c-9.636,0.108-12.667-9.421-12.667-17.542c0-8.986,3.464-17.216,12.667-17.216
			c8.444,0.216,12.558,7.904,12.558,17.216C123.064,363.858,120.574,374.038,110.506,374.038z M176.543,326.936
			c-18.729,0-29.879,12.345-29.879,30.752c0,13.752,8.336,28.693,30.421,28.693c9.526,0,24.791-4.438,24.791-13.966
			c0-2.926-2.707-6.173-6.495-6.173c-6.388,0-6.388,7.796-18.296,7.796c-9.203,0-14.615-6.062-14.615-14.401h35.726
			c5.304,0,6.928-1.407,6.928-6.821C205.124,339.822,194.731,326.936,176.543,326.936z M162.47,350.541
			c1.731-7.688,6.495-12.561,14.397-12.561c7.038,0,12.451,5.307,13.316,12.561H162.47z M267.806,343.178
			c0-11.369-10.5-16.242-25.657-16.242c-16.239,0-25.116,8.014-25.116,14.294c0,3.248,2.706,6.062,6.712,6.062
			c6.28,0,6.604-8.661,18.296-8.661c5.305,0,9.96,1.948,9.96,6.497c0,4.547-3.031,5.413-6.82,5.846l-9.635,1.083
			c-12.125,1.409-22.085,5.09-22.085,18.191c0,9.962,8.876,16.133,17.863,16.133c8.335,0,15.481-2.381,21.652-9.204
			c0.216,4.874,2.489,9.204,9.31,9.204c3.789,0,7.145-2.489,7.145-6.062c0-2.49-1.624-4.007-1.624-10.611V343.178z M252,364.51
			c0,5.847-5.305,11.478-13.966,11.478c-5.412,0-8.768-2.924-8.768-6.498c0-4.764,3.572-6.82,10.176-7.795l5.738-0.866
			c1.84-0.325,5.088-0.866,6.82-2.491V364.51z M314.249,351.515l11.692-12.234c1.406-1.516,2.381-2.383,2.381-5.198
			c0-4.005-3.897-7.146-7.471-7.146c-2.381,0-4.438,1.3-6.062,3.033l-17.538,19.489v-35.95c0-5.195-3.14-7.903-7.902-7.903
			c-4.765,0-7.903,2.708-7.903,7.903v64.97c0,5.196,3.139,7.903,7.903,7.903c4.763,0,7.902-2.707,7.902-7.903v-12.02l5.521-4.871
			l14.941,21.114c1.191,1.731,3.247,3.68,7.146,3.68c4.221,0,7.47-3.68,7.47-7.688c0-2.599-1.084-4.33-1.625-5.09L314.249,351.515z
			 M377.471,305.173c-25.55,0-39.406,16.999-39.406,39.845c0,23.606,11.476,41.798,39.406,41.798
			c26.632,0,39.406-19.814,39.406-41.798C416.877,322.172,403.02,305.173,377.471,305.173z M377.471,372.522
			c-16.672,0-21.651-12.561-21.651-27.505c0-14.94,7.146-25.554,21.651-25.554c14.507,0,21.651,10.613,21.651,25.554
			C399.122,359.962,393.602,372.522,377.471,372.522z M473.604,326.936c-6.17,0-7.902,3.682-7.902,7.905v26.095
			c0,7.906-6.496,12.452-12.018,12.452c-6.819,0-9.96-4.546-9.96-10.936v-27.611c0-4.224-1.731-7.905-7.902-7.905
			c-6.17,0-7.902,3.682-7.902,7.905v30.751c0,16.026,10.393,20.789,19.918,20.789c8.986,0,14.724-4.113,19.163-9.961h0.217v2.058
			c0,4.766,2.164,7.903,7.145,7.903c4.981,0,7.146-3.138,7.146-7.903v-43.637C481.508,330.617,479.774,326.936,473.604,326.936z
			 M520.373,374.038h-2.274c-2.814,0-4.113-1.301-4.113-3.682v-31.618h4.763c4.654,0,7.146-1.408,7.146-5.197
			c0-3.79-2.491-5.196-7.146-5.196h-4.763v-9.638c0-5.199-3.14-7.905-7.904-7.905c-4.763,0-7.902,2.706-7.902,7.905v9.638h-2.707
			c-4.438,0-6.278,1.732-6.278,5.196c0,3.465,1.84,5.197,6.278,5.197h2.707v33.567c0,9.312,4.764,14.075,16.239,14.075
			c7.577,0,11.476-2.489,11.476-7.037C525.894,375.987,523.837,374.038,520.373,374.038z"/>
	</g>
</g>
</svg>
